<svg width="215pt" height="100pt" version="1.1" viewBox="0 0 215 100" xml:space="preserve" xmlns="http://www.w3.org/2000/svg" xmlns:xlink="http://www.w3.org/1999/xlink"><defs><linearGradient id="d"><stop stop-color="#3ab98a" offset="0"/><stop stop-color="#2e4fa8" offset="1"/></linearGradient><linearGradient id="c"><stop stop-color="#0f193a" stop-opacity=".99608" offset="0"/><stop stop-color="#1c316b" offset=".25"/><stop stop-color="#337da6" offset=".5"/><stop stop-color="#3dba8a" offset=".75"/><stop stop-color="#3dba8a" offset="1"/></linearGradient><linearGradient id="l" x1="3.2368" x2="26.219" y1="34.733" y2="46.829" gradientUnits="userSpaceOnUse" xlink:href="#c"/><linearGradient id="k" x1="13.951" x2="47.361" y1="63.059" y2="80.305" gradientUnits="userSpaceOnUse" xlink:href="#c"/><radialGradient id="f" cx="69.761" cy="41.448" r="8.783" gradientTransform="matrix(.94568 -.32511 .88282 2.568 -33.236 -39.748)" gradientUnits="userSpaceOnUse" xlink:href="#d"/><radialGradient id="e" cx="9.4771" cy="61.427" r="8.7467" gradientTransform="matrix(.92026 -.39131 .83582 1.9656 -50.431 -55.537)" gradientUnits="userSpaceOnUse" xlink:href="#d"/><linearGradient id="h" x1="89.477" x2="215" y1="50" y2="50" gradientUnits="userSpaceOnUse"><stop stop-color="#3dbb8b" offset="0"/><stop stop-color="#088aa2" offset=".25"/><stop stop-color="#2e59a8" offset=".5"/><stop stop-color="#1f3571" offset=".75"/><stop stop-color="#0f1b3d" offset="1"/></linearGradient><linearGradient id="g" x1="19.47" x2="56.881" y1="50" y2="50" gradientUnits="userSpaceOnUse"><stop stop-color="#3db88d" offset="0"/><stop stop-color="#3694a0" offset=".25"/><stop stop-color="#0d5aa8" offset=".5"/><stop stop-color="#1f3773" offset=".75"/><stop stop-color="#291d40" offset="1"/></linearGradient><linearGradient id="b" x1="46.981" x2="73.526" y1="57.788" y2="57.788" gradientUnits="userSpaceOnUse"><stop stop-color="#3dba8a" offset="0"/><stop stop-color="#348a9c" offset=".25"/><stop stop-color="#2c57a5" offset=".5"/><stop stop-color="#192e65" offset=".75"/><stop stop-color="#101c3e" offset="1"/></linearGradient><linearGradient id="a" x1="31.592" x2="60.344" y1="27.958" y2="27.958" gradientUnits="userSpaceOnUse"><stop stop-color="#13ba8a" offset="0"/><stop stop-color="#358f9b" offset=".25"/><stop stop-color="#2c53a6" offset=".5"/><stop stop-color="#1a2f67" offset=".75"/><stop stop-color="#101c3f" offset="1"/></linearGradient></defs><path d="m58.882 17.911c3.7286 5.8242 3.0364 16.218 1.1924 24.141 0.53673 0.40152 1.0611 0.80718 1.5732 1.2129 2.8475-8.0388 1.8364-16.444-0.55225-23.807-0.7516-0.53379-1.5175-1.0948-2.2134-1.5469zm3.0234 2.1709c2.2534 7.334 3.119 15.639 0.23877 23.588 0.65964 0.53674 1.2957 1.0734 1.9102 1.6143 2.5648-7.7765 1.9781-15.929 0.10986-23.266-0.76249-0.67112-1.5448-1.366-2.2588-1.9363zm3.1274 2.7612c1.7167 7.2684 2.1426 15.27-0.44678 22.912 0.63916 0.5777 1.2419 1.1599 1.8237 1.7417 2.3067-7.4037 2.1106-15.171 0.7544-22.362-0.71753-0.79232-1.451-1.6132-2.1313-2.2917zm3.0366 3.3911c1.3711 8.0542 0.95577 15.413-1.0899 21.83 0.60638 0.62688 1.1745 1.254 1.7153 1.8809 2.0568-6.8833 2.2174-14.102 1.3652-20.953-0.66779-0.94997-1.3448-1.9362-1.9906-2.7574zm2.9209 4.2539c0.66784 6.6252 0.35167 13.541-1.7051 20.146 0.5818 0.70472 1.1155 1.4101 1.6113 2.1108 1.7986-6.1458 2.2572-12.588 1.8926-18.857-0.59433-1.1714-1.2005-2.3813-1.7988-3.3998zm2.7202 5.5649c0.15979 5.8795-0.43866 11.865-2.2046 17.588 0.55722 0.85222 1.0455 1.6965 1.4634 2.5283 1.4749-4.9658 2.1504-10.157 2.2734-15.324-0.48861-1.648-0.97536-3.3538-1.5322-4.7923zm2.2529 8.4155c-0.32778 4.3717-1.1018 8.7135-2.4375 12.901 0.53674 1.2537 0.90902 2.4804 1.1016 3.6562 1.8009-5.088 2.3098-11.472 1.3359-16.557z" fill="url(#f)"/><path d="m2.0054 40.207c-2.0791 6.7419-2.6747 10.402-1.1543 17.732 0.20896-4.888 0.93696-9.7723 2.3628-14.464-0.44088-1.108-0.93135-2.2368-1.2085-3.268zm1.8032 4.4253c-1.52 5.351-2.1387 10.947-2.1387 16.491 0.44659 1.4668 0.98392 2.9043 1.6025 4.3096-0.2786-6.1253 0.24831-12.397 2.0347-18.391-0.52385-0.81637-1.0746-1.6496-1.4985-2.4096zm2.1182 3.2695c-1.8027 6.3834-2.1803 13.068-1.7051 19.538 0.55312 1.0858 1.1681 2.1434 1.8237 3.1758-0.77437-6.7808-0.54833-13.893 1.5044-20.687-0.55885-0.68861-1.1465-1.389-1.623-2.0268zm2.2119 2.7158c-2.0363 7.0471-2.0976 14.433-1.147 21.407 0.62277 0.885 1.2825 1.7451 1.979 2.5767-1.2742-7.1332-1.3932-14.818 0.90527-22.157-0.61152-0.62409-1.2324-1.2647-1.7358-1.8267h-0.00146zm2.3145 2.4053c-2.274 7.5143-1.9948 15.389-0.55664 22.641 0.67604 0.74569 1.3852 1.4715 2.1226 2.168-1.7904-7.3094-2.2875-15.395 0.26514-23.117-0.62667-0.57699-1.281-1.16-1.8311-1.692zm2.3643 2.1548c-2.5197 7.8544-1.8635 16.074 0.07031 23.449 0.72521 0.63916 1.47 1.2569 2.2485 1.8428-2.3067-7.3504-3.244-15.705-0.40869-23.703-0.6584-0.53521-1.3339-1.0912-1.9101-1.5888zm2.4141 1.979c-2.8025 8.0878-1.7203 16.537 0.71338 23.911 0.50806 0.36056 1.0239 0.71755 1.5483 1.0576-3.118-4.9904-3.6384-13.718-1.1924-24.142-0.36787-0.27855-0.74188-0.57141-1.0693-0.8266z" fill="url(#e)"/><path d="m19.47 0 36.394 100h1.0171c-12.117-33.336-24.28-66.658-36.377-100z" fill="url(#g)"/><path d="m17.435 58.817c-2.95 13.042-1.1713 23.118 4.614 25.814 5.7811 2.6959 14.647-2.4206 22.735-13.061-10.045-2.788-19.195-7.0802-27.349-12.753z" fill="url(#k)"/><path d="m59.727 43.411c-2.7625 10.066-7.0686 19.365-12.746 27.349 13.038 2.9541 23.121 1.1718 25.812-4.6094 3.4959-7.9844-6.3467-17.616-13.066-22.74z" fill="url(#b)"/><path d="m3.587 33.88c-2.7 5.7852 2.4206 14.647 13.061 22.739 2.7671-10.064 7.067-19.368 12.751-27.349-8.3923-2.194-22.714-2.6202-25.812 4.61z" fill="url(#l)"/><g><path d="m31.592 28.459c10.062 2.7736 19.369 7.0697 27.349 12.759 2.95-13.042 1.1718-23.119-4.6094-25.82-8.0976-3.4778-17.663 6.5432-22.74 13.061z" fill="url(#a)"/><path d="m89.478 20.844v58.312h32.958v-5.5758h-27.263v-52.736c-1.8977-2.5e-4 -3.7998 4.41e-4 -5.695-2e-4zm106.8 0c-5.4124 0-9.9767 1.9876-13.681 5.9538-2.3108 2.4706-3.7899 5.4697-4.4373 9.0097-0.38104 2.2616-0.5772 6.5888-0.59769 12.911h5.6941c0.0246-5.5845 0.21767-9.4815 0.59462-11.621 0.49985-2.6878 1.557-4.9079 3.1589-6.682 2.5034-2.7288 5.5927-4.0977 9.2556-4.0977 3.3105 0 6.1207 1.032 8.4275 3.0928 2.3067 2.0649 3.836 4.9248 4.594 8.5673h5.7156c-0.80305-5.146-2.8312-9.2515-6.0844-12.303-3.3496-2.583-8.1748-4.8045-12.64-4.8309zm-63.884 0.07067v58.24h5.6957v-52.739h13.627c3.4458 0 6.196 0.98282 8.2446 2.9454 2.0404 1.9667 3.0637 4.8358 3.0637 8.6011s-1.0233 6.6497-3.0637 8.641c-2.0486 1.9953-4.7989 2.9869-8.2446 2.9869h-7.9311v5.5681h8.452c4.9003 0 8.8669-1.5657 11.915-4.7123 3.0442-3.1344 4.5633-7.3008 4.5633-12.484 0-5.187-1.519-9.3339-4.5633-12.444-3.0483-3.118-7.015-4.6047-11.915-4.6047-6.9119 0.0098-13.93-0.0083-19.844 0.0015zm63.806 27.681v5.3868h13.112v4.3482c0 4.343-1.0002 7.8052-2.9914 10.374-2.5075 3.2696-5.8719 4.9044-10.121 4.9044-3.6916 0-6.7593-1.3403-9.2095-4.0239-1.5979-1.7659-2.6432-3.9861-3.139-6.6698-0.3114-1.8069-0.50038-4.7733-0.57003-8.8869h-5.6987c0.0656 4.8019 0.25352 8.1811 0.5731 10.094 0.65146 3.5359 2.1234 6.5397 4.4219 9.0021 3.6875 3.9743 8.2344 5.9568 13.622 5.9568 5.6992 0 10.44-2.1962 14.239-6.6006 3.0443-3.5318 4.5648-8.4679 4.5648-14.79v-9.0958c-6.549 0.0013-13.197-0.0011-18.803 7e-4z" fill="url(#h)" stroke-width="1.0489"/><path d="m133.33 50" fill="#f00" stroke-width="1.0489"/></g><path d="m133.33 50" stroke-width="1.0489"/></svg>
